<?xml version="1.0" encoding="utf-8"?>
<!-- Generator: Adobe Illustrator 21.0.0, SVG Export Plug-In . SVG Version: 6.00 Build 0)  -->
<svg version="1.1" id="Layer_1" xmlns="http://www.w3.org/2000/svg" xmlns:xlink="http://www.w3.org/1999/xlink" x="0px" y="0px"
	 viewBox="0 0 112 100" style="enable-background:new 0 0 112 100;" xml:space="preserve">
<style type="text/css">
	.st0{fill-rule:evenodd;clip-rule:evenodd;fill:#333333;}
	.st1{fill:#333333;}
</style>
<rect x="-152" y="0.8" class="st0" width="110" height="17.4"/>
<rect x="-152" y="41.3" class="st0" width="110" height="17.4"/>
<rect x="-152" y="81.8" class="st0" width="110" height="17.4"/>
<path class="st1" d="M238.6,30.3V10h-11.3v11.3L210.2,8.8l-44.6,33.5l6.9,9l4.4-3l0,40.2h67.5V48.7l3.7,3.1l6.5-9L238.6,30.3z
	 M237.2,81.4h-53.2V43.7L211,23.4l26.2,20.8V81.4z"/>
<path class="st1" d="M382.8,41.4v46.4h-52.5V41.4h2.2h8.2h31.6h8.2H382.8 M363.1,3.9H350c-9.6,0-17.5,7.8-17.5,17.5v11.8H322V96h69
	V33.1h-10.5V21.4C380.5,11.8,372.7,3.9,363.1,3.9z M340.2,33.1V21.4c0-5.4,4.4-9.8,9.8-9.8h13.1c5.4,0,9.8,4.4,9.8,9.8v11.8H340.2z"
	/>
<path class="st1" d="M528.5,5.6l-80.9,80.9c-2.7,2.7-2.7,7.2,0,9.9c2.7,2.7,7.2,2.7,9.9,0l80.9-80.9c2.7-2.7,2.7-7.2,0-9.9
	C535.7,2.9,531.2,2.9,528.5,5.6"/>
<path class="st1" d="M538.4,86.5L457.5,5.6c-2.7-2.7-7.2-2.7-9.9,0c-2.7,2.7-2.7,7.2,0,9.9l80.9,80.9c2.7,2.7,7.2,2.7,9.9,0
	C541.1,93.7,541.1,89.2,538.4,86.5"/>
<g>
	<path class="st1" d="M46.7,0C24.2,0,6,18.2,6,40.7c0,22.5,18.2,40.7,40.7,40.7c22.5,0,40.7-18.2,40.7-40.7C87.5,18.2,69.2,0,46.7,0
		z M46.7,69.6c-15.9,0-28.8-12.9-28.8-28.8c0-15.9,12.9-28.8,28.8-28.8c15.9,0,28.8,12.9,28.8,28.8C75.6,56.6,62.6,69.6,46.7,69.6z"
		/>
	<rect x="81" y="59.9" transform="matrix(0.7073 -0.7069 0.7069 0.7073 -31.758 85.1233)" class="st0" width="11.9" height="42.1"/>
</g>
</svg>
