<?xml version="1.0" encoding="utf-8"?>
<!-- Generator: Adobe Illustrator 21.0.0, SVG Export Plug-In . SVG Version: 6.00 Build 0)  -->
<svg version="1.1" id="Layer_1" xmlns="http://www.w3.org/2000/svg" xmlns:xlink="http://www.w3.org/1999/xlink" x="0px" y="0px"
	 viewBox="0 0 50 50" style="enable-background:new 0 0 50 50;" xml:space="preserve">
<style type="text/css">
	.st0{fill:#FFFFFF;}
</style>
<g>
	<g>
		<path class="st0" d="M25,0.7C11.6,0.7,0.7,11.6,0.7,25c0,13.4,10.9,24.3,24.3,24.3c13.4,0,24.3-10.9,24.3-24.3
			C49.3,11.6,38.4,0.7,25,0.7z M25,47C12.8,47,3,37.2,3,25C3,12.8,12.8,3,25,3s22,9.9,22,22C47,37.2,37.2,47,25,47z"/>
	</g>
	<g>
		<path class="st0" d="M21.5,38.5c0-1.1,0.3-1.9,0.8-2.4s1.4-0.8,2.4-0.8c1,0,1.8,0.3,2.4,0.9c0.5,0.6,0.8,1.4,0.8,2.4
			c0,1-0.3,1.8-0.8,2.4c-0.6,0.6-1.3,0.9-2.3,0.9c-1,0-1.8-0.3-2.4-0.9C21.7,40.4,21.5,39.6,21.5,38.5z M26.6,31.6h-3.8l-1.1-22h6
			L26.6,31.6z"/>
	</g>
</g>
</svg>
