<?xml version="1.0" encoding="utf-8"?>
<!-- Generator: Adobe Illustrator 21.0.0, SVG Export Plug-In . SVG Version: 6.00 Build 0)  -->
<svg version="1.1" id="Layer_1" xmlns="http://www.w3.org/2000/svg" xmlns:xlink="http://www.w3.org/1999/xlink" x="0px" y="0px"
	 viewBox="0 0 112 100" style="enable-background:new 0 0 112 100;" xml:space="preserve">
<style type="text/css">
	.st0{fill-rule:evenodd;clip-rule:evenodd;fill:#333333;}
	.st1{fill:#333333;}
</style>
<path class="st1" d="M45.8,0C21.1,0,1,20.1,1,44.8c0,24.7,20.1,44.8,44.8,44.8c24.7,0,44.8-20.1,44.8-44.8C90.6,20.1,70.6,0,45.8,0z
	 M45.8,76.5c-17.5,0-31.7-14.2-31.7-31.7c0-17.5,14.2-31.7,31.7-31.7c17.5,0,31.7,14.2,31.7,31.7C77.5,62.3,63.3,76.5,45.8,76.5z"/>
<rect x="83.5" y="55.9" transform="matrix(0.7073 -0.7069 0.7069 0.7073 -29.5037 86.7498)" class="st0" width="13.1" height="46.3"/>
</svg>
