<?xml version="1.0" encoding="utf-8"?>
<!-- Generator: Adobe Illustrator 21.0.0, SVG Export Plug-In . SVG Version: 6.00 Build 0)  -->
<svg version="1.1" id="Layer_1" xmlns="http://www.w3.org/2000/svg" xmlns:xlink="http://www.w3.org/1999/xlink" x="0px" y="0px"
	 viewBox="0 0 104.4 100" style="enable-background:new 0 0 104.4 100;" xml:space="preserve">
<style type="text/css">
	.st0{display:none;}
	.st1{display:inline;}
	.st2{fill:#333333;}
	.st3{display:inline;fill:#333333;}
	.st4{fill:#0090DA;}
	.st5{fill:#0061A0;}
	.st6{fill:#FFFFFF;}
</style>
<g id="Layer_1_1_" class="st0">
	<g class="st1">
		<path class="st2" d="M52.4,20.2c1.1,0.5,2.1,1.4,2.8,2.6l0,0l0,0c0.3,0.5,0.4,1,0.5,1.6s0.1,1.3,0.2,2.1l0,0l0,0
			c0.1,1.9,0.1,3.8,0.2,5.8l0,0l0,0c0,0.7,0.2,1.1,0.3,1.4l0,0c0.1,0.4,0.2,0.7,0.3,0.9l0.1,0.2l0,0H57h-0.2l0,0H57h-0.2l0,0l0,0
			l0,0l0,0l0,0c0,1.3-0.3,2.5-0.7,3.6l3.1,1.2c0.6-1.5,0.9-3,0.9-4.7l0,0l0,0v-0.1c0-0.6-0.1-1-0.2-1.3c-0.1-0.3-0.2-0.5-0.2-0.7
			l0,0l0,0c-0.1-0.2-0.1-0.4-0.1-0.5s0-0.2,0-0.2l0,0l0,0c-0.1-1.9-0.2-3.8-0.2-5.7l0,0l0,0c0-0.8-0.1-1.6-0.2-2.5
			c-0.1-0.9-0.4-1.8-0.9-2.7l0,0l0,0c-1-1.8-2.5-3.2-4.3-4L52.4,20.2z"/>
		<path class="st2" d="M10.9,78.3c0.9-4.6,1.9-7.9,3-10.3c0.9-2,1.8-3.4,2.7-4.3c0.7-0.7,1.4-1.2,2.1-1.5c1.1-0.5,2.3-0.8,3.7-1
			c1.4-0.2,3-0.3,4.7-0.5h0.1h0.1c2-0.6,4-1.7,5.6-3.4l0,0c0.8-0.9,1.6-1.5,2.5-1.9l0,0l0,0c0.5-0.2,0.9-0.5,1.3-1
			c0.3-0.4,0.5-1,0.5-1.5l0,0l0,0c0-0.3,0-0.6,0-0.8c0-1.1-0.2-2.2-0.6-3.2l0,0l0,0c-0.3-0.6-0.5-1.4-0.7-2.2l0,0l0,0
			c-0.3-0.8-0.4-1.9-1-3l0,0l0,0c-0.7-1.5-1.6-2.8-2.2-4l0,0c-0.2-0.4-0.4-0.9-0.4-1.2l0,0l0,0c-0.1-1.8-0.1-3.5-0.1-5.2
			c0-0.7,0-1.4,0-2.1l0,0l0,0c0.1-1.5,0.3-3.1,0.6-4.5l-3.2-0.9c-0.5,1.7-0.7,3.5-0.8,5.2l0,0c0,0.7,0,1.5,0,2.2
			c0,1.8,0.1,3.6,0.1,5.3l0,0l0,0c0.1,1,0.4,1.9,0.8,2.6l0,0c0.8,1.5,1.6,2.7,2.2,3.9l0,0l0,0c0.3,0.6,0.5,1.5,0.8,2.6l0,0l0,0
			c0.2,0.7,0.5,1.6,0.9,2.6l0,0l0,0c0.3,0.6,0.4,1.2,0.4,1.9c0,0.2,0,0.4,0,0.6l0,0l0,0h0.4l-0.3-0.2L34,52.7h0.4l-0.3-0.2l0.4,0.3
			l-0.2-0.5c0,0-0.1,0.1-0.2,0.2l0.4,0.3l-0.2-0.5l0,0c-1.5,0.6-2.7,1.6-3.7,2.7l0,0c-1.1,1.2-2.5,2-4,2.5l0.5,1.6l-0.2-1.6
			c-1.8,0.3-3.6,0.3-5.5,0.6c-1.4,0.2-2.8,0.6-4.2,1.3c-1,0.6-2,1.3-3,2.4c-1.4,1.5-2.6,3.6-3.7,6.5c-1,2.7-1.9,6-2.8,10.3
			c0,0.1,0.9,0,0.3,0c-0.3,0,0.8,0,1.3,0s1-0.1,1.4-0.1C10.6,78.4,10.9,78.4,10.9,78.3z"/>
		<path class="st2" d="M77.4,78.5c-1-5.4-1.8-7.8-3-10.5c-0.9-2-1.8-3.4-2.7-4.3c-0.7-0.7-1.4-1.2-2.1-1.5c-1.1-0.5-2.3-0.8-3.7-1
			c-1.4-0.2-3-0.3-4.7-0.5h-0.1H61c-2-0.6-4-1.7-5.6-3.4l0,0c-0.8-0.9-1.6-1.5-2.5-1.9l0,0l0,0c-0.5-0.2-0.9-0.5-1.3-1
			c-0.3-0.4-0.5-1-0.5-1.5l0,0l0,0c0-0.3,0-0.6,0-0.8c0-1.1,0.2-2.2,0.6-3.2l0,0l0,0c0.3-0.6,0.5-1.4,0.7-2.2l0,0l0,0
			c0.3-0.8,0.4-1.9,1-3l0,0l0,0c0.7-1.5,1.6-2.8,2.2-4l0,0c0.2-0.4,0.4-0.9,0.4-1.2l0,0l0.5,0.1c0.1-1.8,0.7-3.5,0.7-5.2
			c0-0.7-1.1-1.5-1.1-2.2l0,0l0,0c-0.1-1.5,0.5-3.3,0.1-4.7l2.5-0.7c0.5,1.7,0.7,3.5,0.8,5.2l0,0c0,0.7,0,1.5,0,2.2
			c0,1.8-0.1,3.6-0.1,5.3l0,0l0,0c-0.1,1-0.4,1.9-0.8,2.6l0,0c-0.8,1.5-1.6,2.7-2.2,3.9l0,0l0,0c-0.3,0.6-0.5,1.5-0.8,2.6l0,0l0,0
			c-0.2,0.7-0.5,1.6-0.9,2.6l0,0l0,0c-0.3,0.6-0.4,1.2-0.4,1.9c0,0.2,0,0.4,0,0.6l0,0l0,0h-0.4l0.3-0.2l0.1,0.2h-0.4l0.3-0.2
			L54,52.7l0.2-0.5c0,0,0.1,0.1,0.2,0.2L54,52.7l0.2-0.5l0,0c1.5,0.6,2.7,1.6,3.7,2.7l0,0c1.1,1.2,2.5,2,4,2.5L61.5,59l0.2-1.6
			c1.8,0.3,3.6,0.3,5.5,0.6c1.4,0.2,2.8,0.6,4.2,1.3c1,0.6,2,1.3,3,2.4c1.4,1.5,2.6,3.6,3.7,6.5c1.1,2.9,2.7,10.3,2.7,10.3H77.4z"/>
		<g>
			<path class="st2" d="M32.7,26.7h-3.2c0-6.5,5.6-11.8,12.8-12.5v-0.1h1.5c6.1,0.3,11.8,2.4,11.8,6.1h-3.2c0-0.8-3.2-2.7-9.2-2.9
				C37.4,17.6,32.7,21.7,32.7,26.7z"/>
		</g>
	</g>
	<polygon class="st3" points="78.6,78.5 7.5,78.5 9.3,74.8 77.9,74.8 	"/>
</g>
<path class="st4" d="M27.9,56.5c-13.4,0-24.3-10.9-24.3-24.3S14.5,7.9,27.9,7.9s24.3,10.9,24.3,24.3c0,0,0,0,0,0v24.3H27.9z"/>
<path class="st5" d="M52.2,67.6c0,13.4,10.9,24.3,24.3,24.3c13.4,0,24.3-10.9,24.3-24.3S89.9,43.3,76.5,43.3H52.2V67.6z"/>
<path class="st6" d="M26.5,47.7v-3.7c-3.9-0.3-7-3.3-7.5-7.2l4.3-1.1c0.1,2.5,2.3,4.4,4.7,4.3c0.1,0,0.1,0,0.2,0
	c2.3,0,3.6-1.1,3.6-2.6c0-1.2-0.9-2.1-2.6-2.5L26,34.1c-3.8-0.8-6.1-3.2-6.1-6.6c0-3.7,2.9-6.4,6.6-7v-3.7h3.6v3.9
	c3.1,0.4,5.6,2.8,6.3,5.9L32,27.7c-0.3-2-2-3.4-4-3.3c-2.2,0-3.5,1.3-3.5,2.7c0,1.1,0.8,2,2.4,2.3l3.2,0.7c4.4,1,6.4,3.6,6.4,6.8
	c0,3.2-2.3,6.2-6.5,6.9v3.8H26.5z"/>
<path class="st6" d="M74.5,83v-3.8c-3.9-0.3-7-3.3-7.5-7.2l4.3-1.1c0.1,2.5,2.3,4.4,4.7,4.3c0.1,0,0.1,0,0.2,0
	c2.3,0,3.6-1.1,3.6-2.6c0-1.2-0.9-2.1-2.6-2.5L74,69.5c-3.8-0.8-6.1-3.2-6.1-6.6c0-3.7,2.9-6.4,6.6-7v-3.7h3.6V56
	c3.1,0.4,5.6,2.8,6.3,5.9l-4.3,1.2c-0.3-2-2-3.4-4-3.3c-2.2,0-3.5,1.3-3.5,2.7c0,1.1,0.8,2,2.4,2.3l3.2,0.7c4.4,1,6.4,3.6,6.4,6.8
	c0,3.2-2.3,6.2-6.5,6.9V83L74.5,83z"/>
</svg>
