<?xml version="1.0" encoding="utf-8"?>
<!-- Generator: Adobe Illustrator 21.0.0, SVG Export Plug-In . SVG Version: 6.00 Build 0)  -->
<svg version="1.1" id="Layer_1" xmlns="http://www.w3.org/2000/svg" xmlns:xlink="http://www.w3.org/1999/xlink" x="0px" y="0px"
	 viewBox="0 0 209 75.9" style="enable-background:new 0 0 209 75.9;" xml:space="preserve">
<style type="text/css">
	.st0{fill:none;}
	.st1{fill:#A4CE4E;}
	.st2{fill:#0090DA;}
	.st3{fill:#0061A0;}
	.st4{fill:#231F20;}
</style>
<rect x="0" y="0" class="st0" width="209" height="75.9"/>
<g>
	<path id="XMLID_26_" class="st1" d="M34.4,28.2c3.2,4.2,5.1,9.5,5.1,15.3c0,1.4-0.1,2.7-0.3,4.1h9.3c0.8,0,1.5-0.7,1.5-1.5V20.4
		c0-1-0.9-1.7-1.8-1.4C42.6,20.4,37.8,23.7,34.4,28.2z"/>
	<path id="XMLID_25_" class="st2" d="M29.6,47.5c-0.2-1.3-0.3-2.7-0.3-4.1c0-5.7,1.9-11,5.1-15.3c-3.4-4.5-8.2-7.8-13.7-9.2
		c-0.9-0.2-1.8,0.5-1.8,1.4V46c0,0.8,0.7,1.5,1.5,1.5H29.6z"/>
	<path id="XMLID_24_" class="st3" d="M34.4,28.2c-3.2,4.2-5.1,9.5-5.1,15.3c0,1.4,0.1,2.7,0.3,4.1h9.6c0.2-1.3,0.3-2.7,0.3-4.1
		C39.5,37.7,37.6,32.4,34.4,28.2z"/>
</g>
<path class="st4" d="M59.6,24.1h6.8c1.2,0,2.2,0.2,3,0.5c0.8,0.3,1.5,0.8,2,1.3c0.5,0.6,0.9,1.2,1.2,1.9c0.3,0.7,0.4,1.5,0.4,2.3
	c0,1-0.2,1.9-0.5,2.7c-0.3,0.8-0.8,1.4-1.4,1.9c-0.6,0.5-1.3,0.9-2,1.2c-0.8,0.3-1.6,0.4-2.4,0.4h-2.9v6.6h-4.1V24.1z M66.2,32.8
	c0.8,0,1.4-0.2,1.9-0.7c0.5-0.5,0.7-1.1,0.7-1.9c0-0.8-0.2-1.4-0.7-1.9c-0.5-0.5-1.1-0.7-1.9-0.7h-2.5v5.3H66.2z"/>
<path class="st4" d="M74.8,29.7h3.9l0.1,1.7c0.3-0.5,0.8-0.9,1.4-1.3s1.4-0.6,2.3-0.6c0.4,0,0.7,0,0.9,0.1c0.3,0,0.5,0.1,0.7,0.2
	l-0.6,3.6c-0.4-0.1-0.9-0.2-1.5-0.2c-1,0-1.7,0.3-2.3,0.9c-0.6,0.6-0.9,1.4-0.9,2.4v6.5h-4.1V29.7z"/>
<path class="st4" d="M84.2,36.3c0-1,0.2-1.9,0.5-2.7c0.3-0.9,0.8-1.6,1.5-2.2c0.6-0.6,1.4-1.1,2.2-1.5c0.9-0.4,1.8-0.5,2.9-0.5
	c1.1,0,2,0.2,2.9,0.5c0.9,0.4,1.6,0.9,2.2,1.5c0.6,0.6,1.1,1.4,1.5,2.2c0.3,0.9,0.5,1.8,0.5,2.7c0,1-0.2,1.9-0.5,2.7
	c-0.3,0.9-0.8,1.6-1.5,2.2c-0.6,0.6-1.4,1.1-2.2,1.5c-0.9,0.4-1.8,0.6-2.9,0.6c-1.1,0-2-0.2-2.9-0.6c-0.9-0.4-1.6-0.9-2.2-1.5
	c-0.6-0.6-1.1-1.4-1.5-2.2C84.3,38.2,84.2,37.2,84.2,36.3z M91.3,39.8c0.5,0,1-0.1,1.4-0.3c0.4-0.2,0.7-0.5,1-0.8
	c0.3-0.3,0.5-0.7,0.6-1.1c0.1-0.4,0.2-0.9,0.2-1.3c0-0.5-0.1-0.9-0.2-1.3c-0.1-0.4-0.3-0.8-0.6-1.1c-0.3-0.3-0.6-0.6-1-0.8
	c-0.4-0.2-0.8-0.3-1.4-0.3c-0.5,0-1,0.1-1.4,0.3c-0.4,0.2-0.7,0.5-1,0.8c-0.3,0.3-0.5,0.7-0.6,1.1s-0.2,0.9-0.2,1.3
	c0,0.5,0.1,0.9,0.2,1.3c0.1,0.4,0.3,0.8,0.6,1.1c0.3,0.3,0.6,0.6,1,0.8C90.3,39.7,90.8,39.8,91.3,39.8z"/>
<path class="st4" d="M95.8,24.1h4.7l4.6,13.7l4.5-13.7h4.5l-6.9,18.8h-4.5L95.8,24.1z"/>
<path class="st4" d="M130.5,41.6c-0.4,0.5-0.9,0.9-1.6,1.2c-0.6,0.3-1.4,0.5-2.2,0.5c-0.8,0-1.6-0.2-2.3-0.5
	c-0.7-0.3-1.3-0.8-1.8-1.4c-0.5-0.6-0.9-1.3-1.2-2.1c-0.3-0.8-0.5-1.8-0.5-2.8c0-1.2,0.2-2.2,0.6-3.1c0.4-0.9,1-1.6,1.6-2.2
	c0.7-0.6,1.4-1,2.2-1.3s1.6-0.4,2.4-0.4c0.6,0,1.1,0,1.5,0.1c0.4,0.1,0.7,0.2,1.1,0.3v-5.7h4v18.8h-3.8L130.5,41.6z M130.4,33.3
	c-0.3-0.2-0.6-0.3-0.9-0.4c-0.3-0.1-0.7-0.1-1.2-0.1c-1,0-1.8,0.3-2.4,1c-0.6,0.7-0.9,1.6-0.9,2.7c0,1,0.2,1.7,0.7,2.4
	c0.5,0.6,1.2,0.9,2.1,0.9c0.5,0,0.8-0.1,1.2-0.2c0.3-0.2,0.6-0.4,0.8-0.6c0.2-0.3,0.4-0.6,0.5-0.9c0.1-0.4,0.1-0.7,0.1-1.1V33.3z"/>
<path class="st4" d="M144.5,41.6c-0.5,0.5-1,0.9-1.7,1.2c-0.7,0.3-1.5,0.4-2.3,0.4c-0.5,0-1-0.1-1.5-0.2c-0.5-0.1-1-0.4-1.4-0.7
	c-0.4-0.3-0.8-0.7-1.1-1.3c-0.3-0.5-0.4-1.2-0.4-2c0-0.8,0.2-1.5,0.5-2.1c0.3-0.6,0.7-1.1,1.3-1.5c0.5-0.4,1.2-0.7,1.9-0.9
	c0.7-0.2,1.5-0.3,2.4-0.3c0.5,0,0.9,0,1.4,0c0.5,0,0.8,0,0.9,0.1v-0.3c0-0.3-0.1-0.6-0.2-0.9c-0.1-0.2-0.3-0.4-0.6-0.6
	c-0.2-0.2-0.5-0.3-0.8-0.3c-0.3-0.1-0.6-0.1-1-0.1c-0.9,0-1.6,0.1-2.2,0.3c-0.6,0.2-1.1,0.5-1.5,0.8l-1.7-2.5c0.3-0.2,0.6-0.4,1-0.6
	c0.4-0.2,0.8-0.4,1.3-0.6c0.5-0.2,1-0.3,1.6-0.4c0.6-0.1,1.3-0.2,2.1-0.2c2,0,3.5,0.5,4.5,1.6c1,1.1,1.4,2.5,1.4,4.4v7.7h-3.8
	L144.5,41.6z M144.5,37.1c-0.1,0-0.3,0-0.5-0.1c-0.3,0-0.6,0-0.9,0c-1.1,0-1.9,0.2-2.4,0.5s-0.7,0.8-0.7,1.4c0,1.1,0.7,1.6,2,1.6
	c0.3,0,0.6-0.1,0.9-0.2c0.3-0.1,0.6-0.2,0.8-0.4c0.2-0.2,0.4-0.4,0.6-0.7c0.1-0.3,0.2-0.6,0.2-1V37.1z"/>
<path class="st4" d="M157.3,25.5h1.2l7.1,17.3h-1.4l-2.3-5.6h-8.2l-2.2,5.6h-1.4L157.3,25.5z M161.5,36.1l-3.6-9l-3.6,9H161.5z"/>
<path class="st4" d="M167.4,25.5h10.4v1.2h-9.2v6.6h7.2v1.2h-7.2v8.5h-1.2V25.5z"/>
<path class="st4" d="M178.8,25.5h5.3c1.1,0,2.1,0.1,2.8,0.4c0.8,0.3,1.4,0.6,1.9,1.1c0.5,0.5,0.8,1,1,1.6c0.2,0.6,0.3,1.3,0.3,2
	s-0.1,1.4-0.3,2s-0.5,1.1-1,1.6c-0.5,0.5-1.1,0.8-1.9,1.1c-0.8,0.3-1.7,0.4-2.8,0.4h-4.1v7.4h-1.2V25.5z M184.5,34.4
	c1.5,0,2.5-0.3,3.3-1c0.7-0.6,1.1-1.6,1.1-2.8c0-1.2-0.4-2.2-1.1-2.8s-1.8-1-3.3-1h-4.4v7.6H184.5z"/>
<g>
	<path class="st4" d="M59.6,49.5H61v3.8c0,0.2,0,0.4,0.1,0.6c0,0.2,0.1,0.3,0.2,0.4c0.1,0.1,0.2,0.2,0.4,0.3
		c0.2,0.1,0.4,0.1,0.6,0.1c0.2,0,0.4,0,0.6-0.1c0.2-0.1,0.3-0.2,0.4-0.3c0.1-0.1,0.2-0.3,0.2-0.4c0-0.2,0.1-0.4,0.1-0.6v-3.8H65v4
		c0,0.4-0.1,0.7-0.2,1.1s-0.3,0.6-0.5,0.8c-0.2,0.2-0.5,0.4-0.9,0.5c-0.3,0.1-0.7,0.2-1.1,0.2c-0.4,0-0.8-0.1-1.1-0.2
		c-0.3-0.1-0.6-0.3-0.9-0.5c-0.2-0.2-0.4-0.5-0.5-0.8s-0.2-0.7-0.2-1.1V49.5z"/>
	<path class="st4" d="M66.1,51.4h1.3l0,0.5c0.1-0.2,0.3-0.3,0.6-0.4c0.2-0.1,0.5-0.2,0.8-0.2c0.5,0,0.9,0.2,1.2,0.5
		c0.3,0.3,0.5,0.8,0.5,1.4V56h-1.4v-2.6c0-0.3-0.1-0.5-0.2-0.6c-0.1-0.1-0.3-0.2-0.5-0.2c-0.2,0-0.3,0-0.4,0.1
		c-0.1,0.1-0.2,0.1-0.3,0.2c-0.1,0.1-0.1,0.2-0.2,0.3c0,0.1-0.1,0.2-0.1,0.4V56h-1.4V51.4z"/>
	<path class="st4" d="M74.2,55.5c-0.2,0.2-0.4,0.3-0.6,0.4c-0.2,0.1-0.5,0.1-0.8,0.1c-0.2,0-0.3,0-0.5-0.1c-0.2,0-0.3-0.1-0.5-0.2
		c-0.2-0.1-0.3-0.3-0.4-0.4c-0.1-0.2-0.1-0.4-0.1-0.7c0-0.3,0.1-0.5,0.2-0.7c0.1-0.2,0.3-0.4,0.4-0.5c0.2-0.1,0.4-0.2,0.7-0.3
		c0.3-0.1,0.5-0.1,0.8-0.1c0.2,0,0.3,0,0.5,0c0.2,0,0.3,0,0.3,0V53c0-0.1,0-0.2-0.1-0.3c0-0.1-0.1-0.1-0.2-0.2
		c-0.1-0.1-0.2-0.1-0.3-0.1c-0.1,0-0.2,0-0.3,0c-0.3,0-0.6,0-0.8,0.1c-0.2,0.1-0.4,0.2-0.5,0.3l-0.6-0.9c0.1-0.1,0.2-0.1,0.3-0.2
		s0.3-0.1,0.4-0.2c0.2-0.1,0.4-0.1,0.6-0.1c0.2,0,0.4-0.1,0.7-0.1c0.7,0,1.2,0.2,1.5,0.6c0.3,0.4,0.5,0.9,0.5,1.5V56h-1.3L74.2,55.5
		z M74.2,54c0,0-0.1,0-0.2,0c-0.1,0-0.2,0-0.3,0c-0.4,0-0.7,0.1-0.8,0.2c-0.2,0.1-0.2,0.3-0.2,0.5c0,0.4,0.2,0.6,0.7,0.6
		c0.1,0,0.2,0,0.3-0.1c0.1,0,0.2-0.1,0.3-0.1c0.1-0.1,0.1-0.1,0.2-0.2c0.1-0.1,0.1-0.2,0.1-0.3V54z"/>
	<path class="st4" d="M82.3,55.4c-0.2,0.2-0.4,0.4-0.7,0.5c-0.3,0.1-0.7,0.2-1.1,0.2c-0.4,0-0.7-0.1-1-0.2c-0.3-0.1-0.6-0.3-0.8-0.5
		c-0.2-0.2-0.4-0.5-0.5-0.8c-0.1-0.3-0.2-0.6-0.2-1c0-0.3,0.1-0.6,0.2-0.9c0.1-0.3,0.3-0.5,0.5-0.8c0.2-0.2,0.5-0.4,0.8-0.5
		c0.3-0.1,0.6-0.2,1-0.2c0.4,0,0.8,0.1,1.1,0.2c0.3,0.1,0.6,0.3,0.8,0.5l-0.8,0.9c-0.1-0.1-0.2-0.2-0.4-0.3
		c-0.1-0.1-0.3-0.1-0.6-0.1c-0.2,0-0.3,0-0.4,0.1c-0.1,0.1-0.2,0.2-0.3,0.3c-0.1,0.1-0.2,0.2-0.2,0.4c0,0.1-0.1,0.3-0.1,0.5
		c0,0.1,0,0.3,0.1,0.4c0,0.1,0.1,0.3,0.2,0.4c0.1,0.1,0.2,0.2,0.3,0.3c0.1,0.1,0.3,0.1,0.4,0.1c0.2,0,0.4,0,0.6-0.1
		c0.2-0.1,0.3-0.2,0.4-0.3L82.3,55.4z"/>
	<path class="st4" d="M82.6,53.7c0-0.3,0.1-0.6,0.2-0.9c0.1-0.3,0.3-0.5,0.5-0.8c0.2-0.2,0.5-0.4,0.8-0.5c0.3-0.1,0.6-0.2,1-0.2
		c0.4,0,0.7,0.1,1,0.2c0.3,0.1,0.6,0.3,0.8,0.5c0.2,0.2,0.4,0.5,0.5,0.8c0.1,0.3,0.2,0.6,0.2,0.9s-0.1,0.6-0.2,0.9
		c-0.1,0.3-0.3,0.5-0.5,0.8c-0.2,0.2-0.5,0.4-0.8,0.5c-0.3,0.1-0.6,0.2-1,0.2c-0.4,0-0.7-0.1-1-0.2c-0.3-0.1-0.6-0.3-0.8-0.5
		c-0.2-0.2-0.4-0.5-0.5-0.8C82.7,54.3,82.6,54,82.6,53.7z M85,54.9c0.2,0,0.3,0,0.5-0.1c0.1-0.1,0.3-0.2,0.3-0.3
		c0.1-0.1,0.2-0.2,0.2-0.4c0-0.1,0.1-0.3,0.1-0.4c0-0.2,0-0.3-0.1-0.5c0-0.1-0.1-0.3-0.2-0.4c-0.1-0.1-0.2-0.2-0.3-0.3
		c-0.1-0.1-0.3-0.1-0.5-0.1s-0.3,0-0.5,0.1c-0.1,0.1-0.3,0.2-0.3,0.3c-0.1,0.1-0.2,0.2-0.2,0.4c0,0.1-0.1,0.3-0.1,0.5
		c0,0.2,0,0.3,0.1,0.4c0,0.1,0.1,0.3,0.2,0.4c0.1,0.1,0.2,0.2,0.3,0.3C84.7,54.9,84.9,54.9,85,54.9z"/>
	<path class="st4" d="M88.3,51.4h1.3l0,0.5c0.1-0.2,0.3-0.3,0.5-0.4c0.2-0.1,0.5-0.2,0.8-0.2c0.2,0,0.3,0,0.5,0.1
		c0.1,0,0.3,0.1,0.4,0.1c0.1,0.1,0.2,0.1,0.3,0.2c0.1,0.1,0.1,0.1,0.2,0.2c0.2-0.2,0.4-0.4,0.7-0.5c0.3-0.1,0.5-0.2,0.8-0.2
		c0.6,0,1,0.2,1.3,0.5c0.3,0.3,0.5,0.8,0.5,1.3V56h-1.4v-2.6c0-0.3-0.1-0.5-0.2-0.6c-0.1-0.1-0.3-0.2-0.5-0.2
		c-0.3,0-0.5,0.1-0.6,0.3c-0.2,0.2-0.2,0.4-0.2,0.7V56h-1.3v-2.6c0-0.3-0.1-0.5-0.2-0.6c-0.1-0.1-0.3-0.2-0.5-0.2
		c-0.3,0-0.5,0.1-0.6,0.3c-0.2,0.2-0.2,0.4-0.2,0.7V56h-1.4V51.4z"/>
	<path class="st4" d="M96.6,51.4H98c0,0.1,0,0.2,0,0.2c0,0.1,0,0.2,0,0.2c0.1-0.2,0.3-0.3,0.6-0.4c0.2-0.1,0.5-0.1,0.7-0.1
		c0.3,0,0.6,0.1,0.9,0.2s0.5,0.3,0.6,0.5c0.2,0.2,0.3,0.5,0.4,0.7c0.1,0.3,0.1,0.6,0.1,0.9c0,0.4-0.1,0.8-0.2,1.1
		c-0.1,0.3-0.3,0.6-0.6,0.8c-0.2,0.2-0.5,0.3-0.8,0.4c-0.3,0.1-0.6,0.1-0.8,0.1c-0.2,0-0.4,0-0.5-0.1c-0.1,0-0.3-0.1-0.4-0.1v2h-1.4
		V51.4z M98,54.8c0.2,0.1,0.4,0.2,0.8,0.2c0.3,0,0.6-0.1,0.8-0.3c0.2-0.2,0.3-0.5,0.3-0.9c0-0.1,0-0.3-0.1-0.4
		c0-0.1-0.1-0.3-0.2-0.4c-0.1-0.1-0.2-0.2-0.3-0.3c-0.1-0.1-0.3-0.1-0.4-0.1c-0.2,0-0.3,0-0.4,0.1s-0.2,0.1-0.3,0.2
		c-0.1,0.1-0.1,0.2-0.2,0.3c0,0.1-0.1,0.2-0.1,0.4V54.8z"/>
	<path class="st4" d="M104.8,55.5c-0.2,0.2-0.4,0.3-0.6,0.4c-0.2,0.1-0.5,0.1-0.8,0.1c-0.2,0-0.3,0-0.5-0.1c-0.2,0-0.3-0.1-0.5-0.2
		c-0.2-0.1-0.3-0.3-0.4-0.4c-0.1-0.2-0.1-0.4-0.1-0.7c0-0.3,0.1-0.5,0.2-0.7c0.1-0.2,0.3-0.4,0.4-0.5c0.2-0.1,0.4-0.2,0.7-0.3
		c0.3-0.1,0.5-0.1,0.8-0.1c0.2,0,0.3,0,0.5,0c0.2,0,0.3,0,0.3,0V53c0-0.1,0-0.2-0.1-0.3s-0.1-0.1-0.2-0.2s-0.2-0.1-0.3-0.1
		c-0.1,0-0.2,0-0.3,0c-0.3,0-0.6,0-0.8,0.1s-0.4,0.2-0.5,0.3l-0.6-0.9c0.1-0.1,0.2-0.1,0.3-0.2s0.3-0.1,0.4-0.2
		c0.2-0.1,0.4-0.1,0.6-0.1c0.2,0,0.4-0.1,0.7-0.1c0.7,0,1.2,0.2,1.5,0.6c0.3,0.4,0.5,0.9,0.5,1.5V56h-1.3L104.8,55.5z M104.8,54
		c0,0-0.1,0-0.2,0c-0.1,0-0.2,0-0.3,0c-0.4,0-0.7,0.1-0.8,0.2c-0.2,0.1-0.2,0.3-0.2,0.5c0,0.4,0.2,0.6,0.7,0.6c0.1,0,0.2,0,0.3-0.1
		c0.1,0,0.2-0.1,0.3-0.1c0.1-0.1,0.1-0.1,0.2-0.2c0.1-0.1,0.1-0.2,0.1-0.3V54z"/>
	<path class="st4" d="M107.1,51.4h1.3l0,0.5c0.1-0.2,0.3-0.3,0.6-0.4c0.2-0.1,0.5-0.2,0.8-0.2c0.5,0,0.9,0.2,1.2,0.5
		c0.3,0.3,0.5,0.8,0.5,1.4V56h-1.4v-2.6c0-0.3-0.1-0.5-0.2-0.6c-0.1-0.1-0.3-0.2-0.5-0.2c-0.2,0-0.3,0-0.4,0.1
		c-0.1,0.1-0.2,0.1-0.3,0.2c-0.1,0.1-0.1,0.2-0.2,0.3s-0.1,0.2-0.1,0.4V56h-1.4V51.4z M107.4,50c0.1-0.1,0.3-0.3,0.5-0.4
		c0.2-0.1,0.4-0.2,0.7-0.2c0.1,0,0.2,0,0.3,0.1c0.1,0,0.2,0.1,0.3,0.1c0.1,0.1,0.2,0.1,0.3,0.1c0.1,0,0.2,0.1,0.3,0.1
		c0.2,0,0.4,0,0.5-0.1c0.1-0.1,0.3-0.2,0.4-0.2l0.5,0.8c-0.1,0.1-0.3,0.3-0.5,0.4c-0.2,0.1-0.4,0.2-0.7,0.2c-0.1,0-0.2,0-0.3-0.1
		c-0.1,0-0.2-0.1-0.3-0.1c-0.1-0.1-0.2-0.1-0.3-0.1c-0.1,0-0.2-0.1-0.3-0.1c-0.2,0-0.4,0-0.5,0.1c-0.1,0.1-0.3,0.2-0.4,0.2L107.4,50
		z"/>
	<path class="st4" d="M112.6,51.4h1.4V56h-1.4V51.4z M113.2,49.4h1.4l-0.8,1.4h-1L113.2,49.4z"/>
	<path class="st4" d="M117.7,55.5c-0.2,0.2-0.4,0.3-0.6,0.4c-0.2,0.1-0.5,0.1-0.8,0.1c-0.2,0-0.3,0-0.5-0.1c-0.2,0-0.3-0.1-0.5-0.2
		c-0.2-0.1-0.3-0.3-0.4-0.4c-0.1-0.2-0.1-0.4-0.1-0.7c0-0.3,0.1-0.5,0.2-0.7c0.1-0.2,0.3-0.4,0.4-0.5c0.2-0.1,0.4-0.2,0.7-0.3
		c0.3-0.1,0.5-0.1,0.8-0.1c0.2,0,0.3,0,0.5,0c0.2,0,0.3,0,0.3,0V53c0-0.1,0-0.2-0.1-0.3s-0.1-0.1-0.2-0.2s-0.2-0.1-0.3-0.1
		c-0.1,0-0.2,0-0.3,0c-0.3,0-0.6,0-0.8,0.1s-0.4,0.2-0.5,0.3l-0.6-0.9c0.1-0.1,0.2-0.1,0.3-0.2s0.3-0.1,0.4-0.2
		c0.2-0.1,0.4-0.1,0.6-0.1c0.2,0,0.4-0.1,0.7-0.1c0.7,0,1.2,0.2,1.5,0.6c0.3,0.4,0.5,0.9,0.5,1.5V56h-1.3L117.7,55.5z M117.7,54
		c0,0-0.1,0-0.2,0c-0.1,0-0.2,0-0.3,0c-0.4,0-0.7,0.1-0.8,0.2c-0.2,0.1-0.2,0.3-0.2,0.5c0,0.4,0.2,0.6,0.7,0.6c0.1,0,0.2,0,0.3-0.1
		c0.1,0,0.2-0.1,0.3-0.1c0.1-0.1,0.1-0.1,0.2-0.2c0.1-0.1,0.1-0.2,0.1-0.3V54z"/>
	<path class="st4" d="M145,50.9c-0.4,0-0.8-0.4-0.8-0.8s0.4-0.8,0.8-0.8c0.4,0,0.8,0.3,0.8,0.8C145.8,50.5,145.4,50.9,145,50.9z
		 M122.7,56h1.4l0.2-4.2l1.4,2.5h0.8l1.3-2.5L128,56h1.5l-0.3-6.5h-1.4l-1.7,3l-1.7-3H123L122.7,56z M134,54.6
		c-0.1,0.1-0.3,0.2-0.5,0.3c-0.2,0.1-0.5,0.2-0.9,0.2c-0.4,0-0.7-0.1-0.9-0.3c-0.2-0.2-0.3-0.4-0.3-0.6h3.2v-0.2
		c0-0.4,0-0.7-0.1-1.1c-0.1-0.3-0.2-0.6-0.4-0.8c-0.2-0.2-0.4-0.4-0.7-0.5c-0.3-0.1-0.6-0.2-1-0.2c-0.4,0-0.7,0.1-1,0.2
		c-0.3,0.1-0.5,0.3-0.7,0.5c-0.2,0.2-0.4,0.5-0.5,0.8c-0.1,0.3-0.2,0.6-0.2,0.9c0,0.4,0.1,0.7,0.2,1c0.1,0.3,0.3,0.6,0.5,0.8
		c0.2,0.2,0.5,0.4,0.8,0.5c0.3,0.1,0.7,0.2,1.1,0.2c0.3,0,0.6,0,0.8-0.1c0.2-0.1,0.4-0.1,0.6-0.2c0.2-0.1,0.3-0.1,0.4-0.2
		c0.1-0.1,0.2-0.1,0.2-0.2L134,54.6z M131.4,53.2c0-0.1,0-0.2,0.1-0.3c0-0.1,0.1-0.2,0.2-0.3c0.1-0.1,0.2-0.2,0.3-0.2
		c0.1-0.1,0.3-0.1,0.4-0.1c0.2,0,0.3,0,0.4,0.1c0.1,0.1,0.2,0.1,0.3,0.2c0.1,0.1,0.1,0.2,0.2,0.3c0,0.1,0.1,0.2,0.1,0.3H131.4z
		 M139.4,56h4.3v-1.2h-2.8v-5.3h-1.5V56z M144.3,56h1.4v-4.6H145h-0.7V56z M150.5,49.8c-0.2-0.2-0.4-0.3-0.7-0.4
		c-0.3-0.1-0.5-0.1-0.7-0.1c-0.2,0-0.5,0-0.7,0.1c-0.2,0.1-0.4,0.2-0.6,0.3c-0.2,0.2-0.3,0.3-0.4,0.6c-0.1,0.2-0.2,0.5-0.2,0.8v0.2
		h-0.7v1.1h0.7V56h1.4v-3.5h1.1v-1.1h-1.1v-0.3c0-0.2,0.1-0.4,0.2-0.5c0.1-0.1,0.3-0.2,0.5-0.2c0.1,0,0.2,0,0.4,0.1
		c0.1,0,0.2,0.1,0.3,0.2L150.5,49.8z M138.3,54.8c-0.1,0.1-0.2,0.1-0.3,0.2c-0.1,0-0.2,0.1-0.4,0.1c-0.2,0-0.3-0.1-0.4-0.2
		c-0.1-0.1-0.1-0.3-0.1-0.5v-1.8h1.2v-1.1h-1.2v-1.2h-1.4v1.2H135v1.1h0.7v1.7c0,0.3,0,0.5,0.1,0.8c0.1,0.2,0.2,0.4,0.3,0.6
		c0.1,0.2,0.3,0.3,0.5,0.4c0.2,0.1,0.5,0.1,0.8,0.1c0.5,0,1-0.2,1.4-0.5L138.3,54.8z M153.8,54.6c-0.1,0.1-0.3,0.2-0.5,0.3
		c-0.2,0.1-0.5,0.2-0.9,0.2c-0.4,0-0.7-0.1-0.9-0.3c-0.2-0.2-0.3-0.4-0.3-0.6h3.2v-0.2c0-0.4,0-0.7-0.1-1.1
		c-0.1-0.3-0.2-0.6-0.4-0.8c-0.2-0.2-0.4-0.4-0.7-0.5c-0.3-0.1-0.6-0.2-1-0.2c-0.4,0-0.7,0.1-1,0.2c-0.3,0.1-0.5,0.3-0.7,0.5
		c-0.2,0.2-0.4,0.5-0.5,0.8c-0.1,0.3-0.2,0.6-0.2,0.9c0,0.4,0.1,0.7,0.2,1c0.1,0.3,0.3,0.6,0.5,0.8c0.2,0.2,0.5,0.4,0.8,0.5
		c0.3,0.1,0.7,0.2,1.1,0.2c0.3,0,0.6,0,0.8-0.1c0.2-0.1,0.4-0.1,0.6-0.2c0.2-0.1,0.3-0.1,0.4-0.2c0.1-0.1,0.2-0.1,0.2-0.2
		L153.8,54.6z M151.3,53.2c0-0.1,0-0.2,0.1-0.3c0-0.1,0.1-0.2,0.2-0.3c0.1-0.1,0.2-0.2,0.3-0.2c0.1-0.1,0.3-0.1,0.4-0.1
		c0.2,0,0.3,0,0.4,0.1c0.1,0.1,0.2,0.1,0.3,0.2c0.1,0.1,0.1,0.2,0.2,0.3c0,0.1,0.1,0.2,0.1,0.3H151.3z"/>
</g>
<path id="XMLID_509_" class="st4" d="M118.2,27.9c-1.9,0.8-3.8-1.1-3-3c0.3-0.7,0.9-1.2,1.7-1.4c1.6-0.3,3,1.1,2.7,2.7
	C119.4,27,118.9,27.6,118.2,27.9z"/>
<polygon id="XMLID_462_" class="st4" points="115.2,42.9 119.3,42.9 119.3,29.6 117.3,29.6 115.2,29.6 "/>
</svg>
