<?xml version="1.0" encoding="utf-8"?>
<!-- Generator: Adobe Illustrator 21.0.0, SVG Export Plug-In . SVG Version: 6.00 Build 0)  -->
<svg version="1.1" id="Layer_1" xmlns="http://www.w3.org/2000/svg" xmlns:xlink="http://www.w3.org/1999/xlink" x="0px" y="0px"
	 viewBox="0 0 100 100" style="enable-background:new 0 0 100 100;" xml:space="preserve">
<style type="text/css">
	.st0{opacity:0.5;fill:url(#XMLID_2_);}
	.st1{fill:#0778BE;}
</style>
<g>
	<g id="XMLID_488_">
		<g id="XMLID_498_">
			<g id="XMLID_503_">
				<linearGradient id="XMLID_2_" gradientUnits="userSpaceOnUse" x1="49.9993" y1="98.0158" x2="49.9993" y2="76.3732">
					<stop  offset="0" style="stop-color:#202A52"/>
					<stop  offset="3.117772e-02" style="stop-color:#2B345A"/>
					<stop  offset="0.2569" style="stop-color:#757C94"/>
					<stop  offset="0.4588" style="stop-color:#B1B4C2"/>
					<stop  offset="0.6297" style="stop-color:#DBDDE3"/>
					<stop  offset="0.7629" style="stop-color:#F5F6F7"/>
					<stop  offset="0.8421" style="stop-color:#FFFFFF"/>
				</linearGradient>
				<path id="XMLID_520_" class="st0" d="M2,76.4C2,88.3,11.7,98,23.6,98h52.7c12,0,21.6-9.7,21.6-21.6H2z"/>
			</g>
		</g>
	</g>
	<g>
		<path class="st1" d="M50,63.2c-1.9,0-3.5,1.6-3.5,3.5c0,1.3,0.7,2.4,1.8,3v5.8c0,1,0.8,1.8,1.8,1.8c1,0,1.8-0.8,1.8-1.8v-5.8
			c1-0.6,1.8-1.7,1.8-3C53.5,64.8,51.9,63.2,50,63.2z"/>
		<path class="st1" d="M50,43.3c-4.7,0-8.5,3.8-8.5,8.5v6.4c2.8-0.6,5.6-0.9,8.5-0.9c2.8,0,5.7,0.3,8.5,0.9v-6.4
			C58.5,47.1,54.7,43.3,50,43.3z"/>
		<path class="st1" d="M76.4,2H23.6C11.7,2,2,11.7,2,23.7v3.9v8.9v3.4v36.6v0C2,88.3,11.7,98,23.6,98h52.7c0.4,0,0.7,0,1.1,0
			C88.9,97.4,98,88,98,76.4V23.7C98,11.7,88.3,2,76.4,2z M18.6,12.8h62.8c2.1,0,3.9,1.7,3.9,3.9v8.5H43.2c0,0-2.6,0-4.4-1.8
			c-0.8-0.8-1.5-1.4-2.2-2.1c-1.9-1.9-3.4-2.5-6.5-2.5H14.7v-2.1C14.7,14.6,16.4,12.8,18.6,12.8z M63.1,59.4
			c0.7,0.2,1.3,0.4,1.8,0.6c0.6,0.2,1.1,0.9,1.1,1.6v16.9c0,0.7-0.5,1.4-1.1,1.6C60.1,82,55.1,83,50,83c-5.1,0-10.1-1-14.9-2.8
			c-0.6-0.2-1.1-0.9-1.1-1.6V61.6c0-0.7,0.5-1.4,1.1-1.6c0.5-0.2,1.1-0.4,1.8-0.6c0.1,0,0.2-0.2,0.2-0.3v-7.4
			c0-7.1,5.8-12.9,12.9-12.9c7.1,0,12.9,5.8,12.9,12.9v7.4C62.9,59.2,63,59.3,63.1,59.4z"/>
	</g>
</g>
</svg>
