<?xml version="1.0" encoding="utf-8"?>
<!-- Generator: Adobe Illustrator 21.0.0, SVG Export Plug-In . SVG Version: 6.00 Build 0)  -->
<svg version="1.1" id="Layer_1" xmlns="http://www.w3.org/2000/svg" xmlns:xlink="http://www.w3.org/1999/xlink" x="0px" y="0px"
	 viewBox="0 0 16 16" style="enable-background:new 0 0 16 16;" xml:space="preserve">
<style type="text/css">
	.st0{fill:#0061A0;}
	.st1{fill:#FFFFFF;}
</style>
<title>util_i_question_16p</title>
<circle class="st0" cx="8" cy="8" r="8"/>
<path class="st1" d="M7.2,9.9c0-0.1,0-0.2,0-0.2c0-0.1,0-0.2,0-0.3c0-0.3,0.1-0.6,0.2-0.9c0.2-0.3,0.4-0.6,0.7-0.8l0.6-0.4
	c0.3-0.2,0.5-0.6,0.5-1c0-0.1,0-0.3-0.1-0.4c0-0.1-0.1-0.3-0.2-0.4C8.8,5.3,8.7,5.2,8.6,5.2C8.4,5.1,8.2,5.1,8,5.1
	c-0.2,0-0.4,0-0.6,0.1C7.3,5.3,7.2,5.4,7.1,5.5C7,5.6,6.9,5.8,6.9,6c0,0.2-0.1,0.3-0.1,0.5c0,0.1,0,0.3,0,0.4L5.3,6.8
	c0-0.1,0-0.2,0-0.3c0-0.1,0-0.2,0-0.3c0-0.3,0.1-0.7,0.2-1C5.5,5,5.7,4.7,6,4.5C6.2,4.2,6.5,4,6.8,3.9C7.2,3.7,7.6,3.6,8,3.7
	c0.4,0,0.8,0.1,1.2,0.2C9.6,4,9.9,4.2,10.2,4.4c0.2,0.2,0.4,0.5,0.5,0.8c0.1,0.3,0.2,0.6,0.2,0.9c0,0.4-0.1,0.9-0.3,1.2
	C10.3,7.7,10,8,9.7,8.2L9.2,8.6C9,8.7,8.8,8.9,8.7,9.1C8.6,9.3,8.5,9.5,8.5,9.8v0.1L7.2,9.9z M6.9,12c0-0.3,0.1-0.5,0.3-0.7
	C7.4,11.1,7.6,11,7.9,11c0.5,0,1,0.4,1,1c0,0.3-0.1,0.5-0.3,0.7C8.4,12.9,8.2,13,7.9,13C7.4,13,6.9,12.5,6.9,12
	C6.9,12,6.9,12,6.9,12z"/>
</svg>
